<svg xmlns="http://www.w3.org/2000/svg" id="Lager_1" viewBox="0 0 707.379 276.51"><defs><style>.cls-1{fill:#5088b4;}</style></defs><path class="cls-1" d="M318.129,75.36v9.75h13.74v7.44h-13.74v19.26h-8.55v-43.86h23.22v7.44h-14.67v-.03Z"></path><path class="cls-1" d="M365.139,111.78l-11.85-17.61h-1.05v17.61h-8.55v-43.86h12.69c3.81,0,8.16.72,11.19,3.15,2.91,2.37,4.35,6.18,4.35,9.87,0,2.7-.93,5.85-2.49,8.01-1.83,2.55-4.47,3.75-7.5,4.35l13.8,18.48h-10.59ZM354.819,74.88h-2.55v13.2h2.43c4.41,0,8.43-1.56,8.43-6.63s-3.87-6.57-8.28-6.57h-.03Z"></path><path class="cls-1" d="M412.089,111.78l-3.75-9.27h-17.88l-4.02,9.27h-9.09l19.02-44.79h6.45l18.48,44.79h-9.21ZM399.519,79.83l-6.39,15.78h12.57l-6.18-15.78Z"></path><path class="cls-1" d="M468.849,111.78l-3.87-27.03-12.09,27.63h-2.37l-11.64-27.63-4.41,27.03h-8.61l8.16-44.64h5.85l11.97,28.68,12.51-28.68h5.85l7.29,44.64h-8.64Z"></path><path class="cls-1" d="M501.729,75.36v36.42h-8.55v-36.42h-9.81v-7.44h28.2v7.44h-9.87.03Z"></path><path class="cls-1" d="M522.249,111.78v-43.86h8.55v43.86h-8.55Z"></path><path class="cls-1" d="M573.819,106.8c-4.68,3.81-9.81,5.01-15.72,5.01h-12.42v-43.86h12.48c13.02,0,23.61,8.28,23.61,21.9,0,6.51-2.91,12.84-7.95,16.98v-.03ZM568.239,78.9c-3.36-3.03-7.38-3.54-11.7-3.54h-2.31v29.01h2.31c4.35,0,8.34-.54,11.7-3.48,3.09-2.7,4.74-6.96,4.74-11.04s-1.71-8.16-4.74-10.92v-.03Z"></path><path class="cls-1" d="M591.609,111.78v-43.86h24.27v7.44h-15.72v9.75h15.12v7.44h-15.12v11.85h15.72v7.44h-24.27v-.06Z"></path><path class="cls-1" d="M344.829,182.88l-26.7-30.51v29.67h-8.55v-44.85h5.91l26.7,30.51v-29.52h8.55v44.73h-5.91v-.03Z"></path><path class="cls-1" d="M391.989,182.88l-3.75-9.27h-17.88l-4.02,9.27h-9.09l19.02-44.79h6.45l18.48,44.79h-9.21ZM379.449,150.93l-6.39,15.78h12.57l-6.18-15.78Z"></path><path class="cls-1" d="M418.689,146.43v36.42h-8.55v-36.42h-9.81v-7.44h28.2v7.44h-9.87.03Z"></path><path class="cls-1" d="M469.089,177.54c-3.36,4.35-9.09,6.3-14.4,6.3s-11.1-1.92-14.4-6.3c-2.55-3.42-3.21-7.56-3.21-11.7v-26.82h8.55v25.14c0,2.76-.06,5.4,1.38,7.89,1.56,2.7,4.68,4.08,7.68,4.08s6.06-1.44,7.71-4.08c1.5-2.37,1.38-5.19,1.38-7.89v-25.14h8.55v26.82c0,4.14-.6,8.28-3.21,11.7h-.03Z"></path><path class="cls-1" d="M505.929,182.88l-11.85-17.61h-1.05v17.61h-8.55v-43.86h12.69c3.81,0,8.16.72,11.19,3.15,2.88,2.37,4.35,6.18,4.35,9.87,0,2.7-.93,5.85-2.49,8.01-1.83,2.55-4.47,3.75-7.5,4.35l13.8,18.48h-10.59ZM495.609,145.98h-2.55v13.2h2.43c4.41,0,8.43-1.56,8.43-6.63s-3.87-6.57-8.28-6.57h-.03Z"></path><path class="cls-1" d="M173.979,93.96c15.03,0,14.34-13.5,14.34-13.5,0,0,0-13.47-14.34-13.47-17.46,0-27.12,31.8-27.12,31.8,0,0-9.63-31.8-27.09-31.8-14.34,0-14.34,13.47-14.34,13.47,0,0-.69,13.5,14.34,13.5,13.41,0,27.09,28.62,27.09,28.62,0,0,13.71-28.62,27.12-28.62"></path><path class="cls-1" d="M195.579,228.33c27.93-21.69,36.51-55.11,31.68-100.41-2.49-23.46,5.7-22.77,5.7-48.18S217.479,0,146.679,0,59.859,55.68,56.079,79.74s-3.06,54.12-3.06,93.48c0,42.93-31.68,70.38-38.97,78.39-7.29,8.01-15.87,11.85-13.71,18.27,2.25,6.63,11.13,6.63,28.92,6.63,55.47,0,113.28-29.31,113.28-85.83,0-42.42-13.83-56.19-28.98-68.58-4.74-3.87-27.48-20.91-27.48-42.36,0-8.4,4.53-34.17,32.22-34.17,17.82,0,24.45,14.43,26.91,20.61,0,0,.42.96,1.53.96s1.56-.96,1.56-.96c2.61-6.18,9.36-20.58,26.73-20.58,13.41,0,30.81,11.31,30.81,34.17s-17.88,33.78-32.55,48.15c-14.67,14.37-3.06,27.66-3.06,27.66,0,0,15.06-6.48,32.73-23.64.63,20.1,1.62,47.88-9.36,66.06-8.28,13.68-19.56,24.42-35.52,31.47-2.22,6.75-5.1,11.79-13.2,25.53h113.76l-4.32-26.64h-58.83l.09-.03Z"></path><path class="cls-1" d="M662.829,112.65l-26.7-30.51v29.67h-8.55v-44.85h5.91l26.7,30.51v-29.52h8.55v44.73h-5.91v-.03Z"></path><path class="cls-1" d="M692.139,112.83c-6.63,0-11.37-2.88-15.06-8.34l5.52-5.34c1.83,3.6,5.07,5.85,9.21,5.85,3.69,0,6.78-2.31,6.78-6.18,0-9-19.26-4.74-19.26-18.87,0-7.77,6.24-12.75,13.68-12.75,4.74,0,9.27,1.71,12.81,4.86l-4.47,5.85c-1.92-2.22-4.08-3.54-7.11-3.54-2.82,0-6.12,1.77-6.12,4.92,0,7.44,19.26,3.75,19.26,19.08,0,8.94-6.57,14.46-15.27,14.46h.03Z"></path><path class="cls-1" d="M566.169,182.88l-4.26-4.92c-4.08,3.3-8.61,5.91-14.01,5.91-7.44,0-13.89-4.74-13.89-12.57,0-4.26,2.31-8.28,5.91-10.53,1.5-.93,3.03-1.71,4.53-2.64-2.37-2.7-4.41-5.52-4.41-9.27,0-6.9,5.58-10.86,12.09-10.86s11.76,4.08,11.76,10.59c0,5.13-4.02,8.34-8.01,10.71l7.23,8.28c1.92-1.89,3.81-3.87,5.46-6.06l5.01,4.92c-1.65,2.31-3.69,4.35-5.73,6.3l8.88,10.05h-10.59l.03.09ZM548.799,163.02c-2.37,1.59-6.18,4.02-6.18,7.23,0,3.42,3.21,6.06,6.51,6.06,3.09,0,5.73-1.83,7.95-3.75l-8.28-9.54ZM552.339,144.15c-2.37,0-4.26,1.71-4.26,4.14s2.25,4.74,3.75,6.51c2.16-1.44,5.01-3.36,5.01-6.3,0-2.64-1.92-4.35-4.47-4.35h-.03Z"></path><path class="cls-1" d="M334.749,253.14l-15.66-19.65-.99.99v18.69h-8.55v-43.86h8.55v18.54l16.11-18.54h10.77l-18.54,20.25,19.53,23.61h-11.25l.03-.03Z"></path><path class="cls-1" d="M383.559,247.8c-3.36,4.35-9.09,6.3-14.4,6.3s-11.1-1.92-14.4-6.3c-2.55-3.42-3.21-7.56-3.21-11.7v-26.82h8.55v25.14c0,2.76-.06,5.4,1.38,7.89,1.56,2.7,4.68,4.08,7.68,4.08s6.06-1.44,7.71-4.08c1.5-2.37,1.38-5.19,1.38-7.89v-25.14h8.55v26.82c0,4.14-.6,8.28-3.21,11.7h-.03Z"></path><path class="cls-1" d="M399.969,253.14v-43.86h8.55v36.42h13.47v7.44h-22.02Z"></path><path class="cls-1" d="M442.779,216.69v36.42h-8.55v-36.42h-9.81v-7.44h28.2v7.44h-9.87.03Z"></path><path class="cls-1" d="M494.019,247.8c-3.36,4.35-9.06,6.3-14.4,6.3s-11.1-1.92-14.4-6.3c-2.55-3.42-3.21-7.56-3.21-11.7v-26.82h8.55v25.14c0,2.76-.06,5.4,1.38,7.89,1.59,2.7,4.68,4.08,7.71,4.08s6.06-1.44,7.71-4.08c1.5-2.37,1.38-5.19,1.38-7.89v-25.14h8.55v26.82c0,4.14-.6,8.28-3.24,11.7h-.03Z"></path><path class="cls-1" d="M531.969,253.14l-11.85-17.61h-1.05v17.61h-8.55v-43.86h12.69c3.81,0,8.16.72,11.19,3.15,2.88,2.37,4.35,6.18,4.35,9.87,0,2.7-.93,5.85-2.49,8.01-1.83,2.55-4.47,3.75-7.5,4.35l13.8,18.48h-10.59ZM521.649,216.24h-2.55v13.2h2.43c4.41,0,8.43-1.56,8.43-6.63s-3.87-6.57-8.28-6.57h-.03Z"></path><path class="cls-1" d="M580.389,253.14l-3.75-9.27h-17.88l-4.02,9.27h-9.09l19.02-44.79h6.45l18.48,44.79h-9.21ZM567.819,221.19l-6.39,15.78h12.57l-6.18-15.78Z"></path><path class="cls-1" d="M617.169,253.14l-11.85-17.61h-1.05v17.61h-8.55v-43.86h12.69c3.81,0,8.16.72,11.19,3.15,2.88,2.37,4.35,6.18,4.35,9.87,0,2.7-.93,5.85-2.49,8.01-1.83,2.55-4.47,3.75-7.5,4.35l13.8,18.48h-10.59ZM606.849,216.24h-2.55v13.2h2.43c4.41,0,8.43-1.56,8.43-6.63s-3.87-6.57-8.28-6.57h-.03Z"></path><path class="cls-1" d="M650.529,254.25h-4.53l-18.69-44.97h9.33l11.7,29.46,11.85-29.46h9.27l-18.93,44.97h0Z"></path><path class="cls-1" d="M314.381,22.38v24h-4.676v-24h4.676Z"></path><path class="cls-1" d="M320.569,46.38v-24h3.237l14.607,16.014v-16.014h4.679v24h-3.24l-14.607-16.046v16.046h-4.676Z"></path><path class="cls-1" d="M361.224,27.85c-1.403-1.869-3.059-2.051-3.92-2.051-2.52,0-3.311,1.585-3.311,2.807,0,.577.179,1.116.756,1.62.574.539,1.365.826,2.877,1.365,1.872.647,3.636,1.298,4.857,2.411,1.081.973,2.051,2.593,2.051,5.039,0,4.676-3.381,7.878-8.347,7.878-4.427,0-7.017-2.698-8.276-4.532l3.059-2.915c1.151,2.338,3.346,3.202,5.039,3.202,2.121,0,3.706-1.295,3.706-3.311,0-.864-.29-1.547-.938-2.159-.899-.826-2.338-1.295-3.706-1.764-1.26-.431-2.769-1.005-3.993-2.086-.791-.683-1.907-2.016-1.907-4.462,0-3.524,2.376-7.052,7.699-7.052,1.512,0,4.354.287,6.803,2.807l-2.449,3.202Z"></path><path class="cls-1" d="M383.287,41.344h-9.68l-2.124,5.036h-5.071l10.327-24h3.668l10.04,24h-5.039l-2.121-5.036ZM381.919,37.53l-3.419-8.637-3.416,8.637h6.835Z"></path><path class="cls-1" d="M397.203,22.38h3.381l6.369,15.258,6.656-15.258h3.384l4.028,24h-4.749l-2.159-14.789-6.439,14.789h-1.585l-6.152-14.789-2.446,14.789h-4.749l4.462-24Z"></path><path class="cls-1" d="M430.657,22.38v19.969h7.412v4.031h-12.091v-24h4.679Z"></path><path class="cls-1" d="M446.698,22.38v24h-4.676v-24h4.676Z"></path><path class="cls-1" d="M452.885,46.38v-24h3.237l14.607,16.014v-16.014h4.679v24h-3.24l-14.607-16.046v16.046h-4.676Z"></path><path class="cls-1" d="M493.748,33.537h11.01v.287c0,1.617-.214,6.656-3.524,9.929-2.484,2.484-5.543,3.167-8.528,3.167s-6.082-.612-8.707-3.237c-.829-.829-3.562-3.85-3.562-9.246,0-4.644,2.086-7.485,3.527-8.924,1.799-1.834,4.819-3.671,9.463-3.671,1.799,0,3.706.287,5.54,1.26,1.547.791,3.237,2.229,4.497,4.389l-4.066,2.197c-.826-1.62-2.051-2.449-2.807-2.845-1.005-.504-2.265-.756-3.381-.756-1.907,0-4.066.686-5.54,2.124-1.368,1.33-2.411,3.633-2.411,6.331,0,3.202,1.365,5.109,2.373,6.082,1.081,1.043,2.771,2.051,5.326,2.051,1.582,0,3.381-.431,4.714-1.438.935-.721,1.869-1.942,2.268-3.671h-6.19v-4.028Z"></path><path class="cls-1" d="M522.055,27.85c-1.403-1.869-3.059-2.051-3.92-2.051-2.52,0-3.311,1.585-3.311,2.807,0,.577.179,1.116.756,1.62.574.539,1.365.826,2.877,1.365,1.869.647,3.633,1.298,4.857,2.411,1.078.973,2.051,2.593,2.051,5.039,0,4.676-3.381,7.878-8.35,7.878-4.424,0-7.014-2.698-8.273-4.532l3.059-2.915c1.151,2.338,3.346,3.202,5.039,3.202,2.121,0,3.703-1.295,3.703-3.311,0-.864-.287-1.547-.935-2.159-.899-.826-2.341-1.295-3.706-1.764-1.26-.431-2.771-1.005-3.993-2.086-.794-.683-1.907-2.016-1.907-4.462,0-3.524,2.373-7.052,7.699-7.052,1.512,0,4.354.287,6.803,2.807l-2.449,3.202Z"></path><path class="cls-1" d="M541.344,27.85c-1.403-1.869-3.059-2.051-3.92-2.051-2.52,0-3.311,1.585-3.311,2.807,0,.577.179,1.116.756,1.62.574.539,1.365.826,2.877,1.365,1.872.647,3.636,1.298,4.857,2.411,1.081.973,2.051,2.593,2.051,5.039,0,4.676-3.381,7.878-8.347,7.878-4.427,0-7.017-2.698-8.276-4.532l3.059-2.915c1.151,2.338,3.346,3.202,5.039,3.202,2.121,0,3.706-1.295,3.706-3.311,0-.864-.29-1.547-.938-2.159-.899-.826-2.338-1.295-3.706-1.764-1.26-.431-2.769-1.005-3.993-2.086-.791-.683-1.907-2.016-1.907-4.462,0-3.524,2.376-7.052,7.699-7.052,1.512,0,4.354.287,6.803,2.807l-2.449,3.202Z"></path><path class="cls-1" d="M556.748,26.412v19.969h-4.676v-19.969h-5.396v-4.031h15.469v4.031h-5.396Z"></path><path class="cls-1" d="M570.489,22.38v24h-4.676v-24h4.676Z"></path><path class="cls-1" d="M589.411,26.412h-8.06v5.361h7.556v4.028h-7.556v10.579h-4.676v-24h12.735v4.031Z"></path><path class="cls-1" d="M601.713,26.412v19.969h-4.679v-19.969h-5.399v-4.031h15.475v4.031h-5.396Z"></path><path class="cls-1" d="M624.084,26.412h-8.634v5.361h8.276v4.028h-8.276v6.548h8.634v4.031h-13.312v-24h13.312v4.031Z"></path><path class="cls-1" d="M634.01,22.38v19.969h7.412v4.031h-12.088v-24h4.676Z"></path><path class="cls-1" d="M657.178,27.85c-1.406-1.869-3.059-2.051-3.923-2.051-2.517,0-3.311,1.585-3.311,2.807,0,.577.179,1.116.756,1.62.577.539,1.368.826,2.88,1.365,1.869.647,3.633,1.298,4.857,2.411,1.078.973,2.051,2.593,2.051,5.039,0,4.676-3.384,7.878-8.35,7.878-4.424,0-7.014-2.698-8.273-4.532l3.059-2.915c1.148,2.338,3.346,3.202,5.036,3.202,2.124,0,3.706-1.295,3.706-3.311,0-.864-.287-1.547-.938-2.159-.896-.826-2.338-1.295-3.703-1.764-1.26-.431-2.771-1.005-3.996-2.086-.791-.683-1.904-2.016-1.904-4.462,0-3.524,2.373-7.052,7.699-7.052,1.512,0,4.354.287,6.8,2.807l-2.446,3.202Z"></path><path class="cls-1" d="M678.617,26.412h-8.637v5.361h8.273v4.028h-8.273v6.548h8.637v4.031h-13.312v-24h13.312v4.031Z"></path><path class="cls-1" d="M683.862,46.38v-24h3.24l14.607,16.014v-16.014h4.676v24h-3.237l-14.607-16.046v16.046h-4.679Z"></path></svg>